<svg width="114" height="86" viewBox="0 0 114 86" fill="none" xmlns="http://www.w3.org/2000/svg">
<path d="M10.2916 80.9439C9.4786 79.9959 8.11819 78.0916 6.62093 74.6243C5.45653 71.9279 5.11958 69.7881 5.04809 62.3121C5.01512 58.8648 5.65884 56.7117 6.27164 53.9841C7.00648 50.7132 7.29296 47.4439 7.36446 40.9915C7.39757 38.0032 6.47999 36.8152 6.41054 36M105.047 57C103.781 60.2075 102.219 61.4519 100.515 63.1621C97.9987 65.6885 94.3344 69.6165 91.8689 71.5412C89.849 73.118 87.9204 73.4495 85.8778 74.6734C83.8787 75.8711 80.9836 76.5797 78.9307 77.5359C77.3062 78.2925 74.4471 78.0834 70.8419 78.4226C63.0279 79.1577 60.8267 78.9007 58.778 79.2399C56.2167 79.6639 53.4732 79.9877 42.2693 80.194C37.9282 80.274 36.0371 80.805 33.9945 81.0113C31.8694 81.226 30.3177 82.1698 28.6141 82.9156C26.7172 83.746 24.7372 83.8043 21.8142 84.1435C15.9194 84.8275 14.381 83.8043 13.6333 83.6021C13.2902 83.3998 13.0206 82.9953 12.7469 82.5846L11.9257 81.3525M23.555 69.3111C26.5413 69.3111 29.5359 69.5808 31.3783 69.7872C33.7694 70.055 36.2112 69.8587 37.8474 69.3132C38.258 69.1763 38.6624 69.0414 39.073 68.972C39.4835 68.9025 39.888 68.9025 40.3046 68.9025M41.7481 45.8012C41.2088 46.7492 39.3051 48.6535 38.008 50.2901C36.66 51.9909 34.5416 52.8788 32.7666 53.5633C32.3628 53.719 28.9573 54.7283 28.6141 55C27.7235 57.0371 31.3783 59.0187 31.3783 59.0187C31.3783 59.0187 33.4471 59.2719 33.9945 59.2801M26.2243 40.0804C27.4458 39.9456 30.424 39.6718 33.1591 39.3326C35.1875 39.2632 36.842 39.398 37.994 39.6023C38.7417 39.6718 39.8202 39.6718 41.3399 40.0804M47.7442 40.5789C47.8791 40.5789 48.0139 40.5789 48.2856 40.5114C48.5572 40.444 48.9617 40.3092 50.1137 40.2397C51.2658 40.1702 53.1532 40.1702 55.9148 40.1702M86.2783 51.5223C85.6001 52.7441 84.5134 54.3745 83.7617 56.3503C83.0289 58.2766 80.9756 59.1474 79.3394 60.0321C77.5419 61.0041 75.6647 62.6862 74.0285 63.3707C72.4722 64.0217 70.7623 64.0511 68.7871 64.2574C67.0259 64.4414 65.4514 64.7376 59.7463 64.666C57.2025 64.6342 53.22 65.8245 50.3338 65.4179C48.626 65.1774 47.0676 64.3289 45.4314 64.1226C43.6987 63.904 41.3832 63.7977 39.073 63.0417C34.2754 61.4718 33.252 63.0376 27.5469 63.0417C24.9848 63.0436 23.3728 61.5992 21.6693 62.347C19.2793 63.3961 18.0619 64.8683 16.4258 66.0922C14.9604 67.1883 13.1596 67.7288 11.5234 68.2069C11.1237 68.3237 10.7084 68.2763 10.4326 68.0741C9.15585 67.1375 9.20501 65.0154 8.38795 63.0417C8.24905 61.2151 8.11423 59.6991 7.70775 59.0187C7.43607 58.7429 7.03163 58.608 5.79787 58.0604M46.0749 46.703H46.7534M93.7704 50.3092C93.6088 50.551 93.4473 51.0357 93.5469 51.5223C93.6599 52.0743 94.3752 52.2117 94.9825 52.4747C95.2869 52.6065 95.5788 52.6555 95.8184 52.6957L95.8332 52.6982C96.3385 52.7831 96.8043 52.2943 97.3714 51.7695C97.5743 51.4463 97.737 51.1207 97.8785 50.8176C97.9398 50.6749 97.9799 50.5546 97.8998 50.5522M34.3947 45.3926H36.0288M107.515 45.9081C108.274 47.4298 109.804 49.1017 110.674 49.8313C111.138 50.2209 111.82 50.4921 112.376 50.6672C112.58 50.7315 112.656 50.3608 112.657 50.0471C112.665 47.5799 110.784 44.453 109.987 42.8937C108.453 39.8936 107.586 39.1039 107.446 38.267C107.42 38.113 107.72 38.0575 107.964 38.1252C108.529 38.2823 108.904 38.8183 109.215 39.131C109.494 39.4108 110.015 39.2374 110.328 39.0654C111.332 38.5131 108.641 35.7102 107.379 34.2374C106.711 33.4581 106.198 32.3623 106.159 30.974C106.124 29.6994 107.72 29.4418 108.38 29.0259C108.654 28.8532 108.695 28.61 108.662 28.4005C108.517 27.4867 107.311 27.2175 106.476 26.9392C105.641 26.6609 104.81 26.3837 103.975 26.1398C103.167 25.9039 102.308 25.8959 101.336 26.0689C99.8249 26.3377 98.9728 25.5498 97.5844 25.0641C97.2285 24.9396 96.959 24.7869 96.7829 24.6128C96.6068 24.4388 96.538 24.2324 96.6401 24.0917C97.1755 23.3541 98.3391 23.6737 99.3126 23.3266C99.55 23.242 99.6607 22.9816 99.6972 22.7721C99.7337 22.5626 99.6649 22.3562 99.4918 22.1467C98.7475 21.2455 97.722 21.0346 97.302 20.2706C97.1956 20.0771 97.1633 19.8547 97.1967 19.6452C97.3605 18.616 98.6851 17.9077 100.801 16.6257C101.44 16.2387 101.945 15.623 102.229 15.2019C102.512 14.7808 102.512 14.5056 102.444 14.2607C102.309 13.7829 101.889 13.4591 101.336 13.1475C100.541 12.7001 96.8465 11.9353 91.8455 10.9972C88.108 10.2961 83.7718 10.2614 82.052 10.4688C80.8949 10.6083 79.7944 10.8159 78.7177 11.0598C77.4619 11.3442 76.3215 10.6116 75.2427 10.228C74.305 9.8946 74.0242 8.80631 73.6771 8.04022C73.2116 7.01276 68.2874 9.20655 66.0006 10.2593C65.466 10.5054 64.9916 10.6783 64.6102 10.5751C63.7443 10.3409 63.5345 9.15235 62.5964 8.11214C60.6877 5.99558 59.5029 3.04029 59.1537 2.13453C58.996 1.7255 58.8066 1.29965 58.495 1.09015C57.6985 0.554723 57.3474 2.54416 57.2421 3.37904C57.1043 4.47222 55.613 5.32502 54.7437 5.84721C53.7634 6.43612 52.6946 6.64666 51.8597 6.89056C51.0521 7.12649 50.193 6.99687 49.1163 6.71858C47.9193 6.40919 46.9286 6.37149 45.8508 6.30061C44.0107 6.1796 42.8969 6.64666 41.889 6.75193C41.0063 6.84413 40.3933 7.06358 40.0462 7.37523C39.8797 7.52477 39.8367 7.75567 39.8701 7.96517C39.9034 8.17467 40.041 8.38105 40.0431 8.59055C40.0524 9.52277 39.2114 10.2572 39.1061 11.1265C39.0425 11.6519 38.932 12.1354 38.8288 12.4481C38.4698 13.5361 36.0177 11.6539 34.8368 11.2703C33.7276 10.91 32.6824 10.0571 30.9824 9.11796C29.9316 8.53751 28.7925 8.03917 27.6793 7.58786C26.5885 7.1456 25.3196 6.926 24.1397 7.06358C22.6152 7.24134 21.2963 9.96952 19.7943 11.6799C17.6319 14.1425 16.0764 14.6349 15.1707 15.6772C14.3469 16.625 14.0585 17.5533 13.2601 18.3194C12.426 19.1197 11.0734 19.1543 10.1332 19.64C8.4498 20.5097 6.27878 22.1394 5.64923 23.2849C4.87651 24.6909 4.05659 25.9584 3.07996 26.9007C2.28201 27.6705 1.68848 28.6017 1.44458 29.5054C1.1362 30.648 1.61761 31.3138 1.78959 31.6265C2.30878 32.5705 3.69804 31.5243 4.46413 31.4545C5.20874 31.3866 5.01968 32.9794 5.61066 33.7455C6.16795 34.4679 7.58791 33.7507 8.87307 33.2639C11.0836 32.4267 12.3825 31.6661 13.2883 31.1439C14.1384 30.6538 15.1634 30.2069 16.1713 29.6148C16.5699 29.3807 17.0416 30.063 17.4919 30.3413C18.4378 30.926 19.541 29.2354 20.4447 28.5392C21.7886 27.5037 23.0849 27.1467 24.1949 26.9736C25.422 26.7824 26.4911 27.007 27.0456 27.2488C27.6991 27.5338 28.0212 28.1869 28.3672 28.5684C29.3474 29.6489 31.5609 28.8852 33.018 28.6768C36.1248 28.2323 37.4686 27.8429 38.6839 27.8064C39.8073 27.7727 40.5955 28.9478 41.6034 29.9577C41.9662 30.3212 42.5425 30.2736 43.1314 30.2048C44.4611 30.0494 45.1817 29.0937 46.9504 27.8471C48.3197 26.8821 49.4176 26.317 50.5672 25.9657C50.8015 25.8942 51.0185 26.0335 51.2281 26.2753C52.2662 27.4735 52.2026 28.8102 52.7227 29.5075C53.2671 30.2373 55.5255 28.1264 58.5158 27.253C59.9831 26.8244 61.0267 27.2842 61.5114 27.7335C62.8498 28.974 63.1092 30.1985 64.532 31.0355C65.7753 31.7669 67.07 31.1074 68.0779 30.9C68.9414 30.7223 69.78 31.3117 71.1683 32.0778C72.1915 32.6424 73.2529 32.429 74.5391 32.2894C76.1221 32.1175 77.8391 31.3159 78.7417 31.4534C79.375 31.55 79.5797 32.2873 79.9956 32.5301C80.8616 33.0359 82.2167 32.6375 83.3289 32.4634C85.2559 32.1618 86.1775 31.8037 88.2256 31.836C88.6278 31.8423 88.6832 32.1455 88.6842 32.3894C88.6886 33.4195 88.3371 34.0926 88.5091 34.5095C88.9197 35.5048 90.4176 34.2343 91.1836 34.1645C91.3392 34.1503 91.3932 34.4386 91.3942 34.6481C91.3985 35.5084 90.9095 36.3147 90.7699 37.1496C90.6045 38.1381 89.6588 38.8163 89.173 39.6511C88.6758 40.506 87.8535 41.1093 87.6773 41.9442C87.4895 42.8344 87.8493 43.9569 88.4382 44.8283C88.8105 45.3792 89.861 45.2827 90.5562 45.3859C91.3483 45.5035 90.4926 47.1547 90.5593 47.852C90.6475 48.7735 92.9816 46.6794 94.2053 45.5996C95.4145 44.5325 95.4915 43.4107 96.2555 42.7833C96.6417 42.466 97.1592 42.2955 97.8169 42.1912C98.1963 42.1311 98.6809 42.1558 98.929 42.6717C100.161 45.2345 99.7316 46.3208 99.7681 47.5018C99.8007 48.559 99.7316 49.9314 100.044 50.9424C100.372 52.0028 101.328 52.5746 101.712 53.4095C101.913 53.8467 102.371 54.3132 102.891 54.7645C103.657 55.4296 104.939 55.2888 105.807 55.1856C107.097 55.0323 107.374 52.583 107.862 51.2999C108.316 50.1046 108.07 49.0371 108.347 48.6212C108.487 48.4117 108.624 48.2053 108.764 48.2022C108.904 48.1991 109.041 48.4054 109.392 48.8265" stroke="#F6F1E8" stroke-width="2" stroke-linecap="round"/>
</svg>
