<svg width="48" height="48" viewBox="0 0 48 48" fill="none" xmlns="http://www.w3.org/2000/svg">
<g clip-path="url(#clip0_372_9)">
<path fill-rule="evenodd" clip-rule="evenodd" d="M31 24C31.5523 24 32 24.4477 32 25V31C32 31.5523 31.5523 32 31 32H25C24.4477 32 24 31.5523 24 31C24 30.4477 24.4477 30 25 30H30V25C30 24.4477 30.4477 24 31 24Z" fill="#FBBC05"/>
<path fill-rule="evenodd" clip-rule="evenodd" d="M1 8C0.447715 8 3.91405e-08 7.55228 8.74228e-08 7L6.11959e-07 0.999999C6.60242e-07 0.447715 0.447716 -6.60242e-07 1 -6.11959e-07L7 -8.74228e-08C7.55229 -3.91405e-08 8 0.447715 8 1C8 1.55228 7.55229 2 7 2L2 2L2 7C2 7.55228 1.55228 8 1 8Z" fill="#FBBC05"/>
<path fill-rule="evenodd" clip-rule="evenodd" d="M8 31C8 31.5523 7.55228 32 7 32L1 32C0.447715 32 -3.30121e-07 31.5523 -3.0598e-07 31L-4.37114e-08 25C-1.95703e-08 24.4477 0.447715 24 1 24C1.55228 24 2 24.4477 2 25L2 30L7 30C7.55228 30 8 30.4477 8 31Z" fill="#FBBC05"/>
<path fill-rule="evenodd" clip-rule="evenodd" d="M24 1C24 0.447715 24.4477 5.87108e-08 25 1.31134e-07L31 9.17939e-07C31.5523 9.90363e-07 32 0.447716 32 1L32 7C32 7.55229 31.5523 8 31 8C30.4477 8 30 7.55229 30 7L30 2L25 2C24.4477 2 24 1.55228 24 1Z" fill="#FBBC05"/>
</g>
<defs>
<clipPath id="clip0_372_9">
<rect width="48" height="48" fill="white"/>
</clipPath>
</defs>
</svg>
