<svg width="32" height="32" viewBox="0 0 32 32" fill="none" xmlns="http://www.w3.org/2000/svg">
<path d="M26.5677 31.1559C26.7654 31.2012 26.965 31.0592 27.0056 30.8604C36.79 -17.0568 29.6756 1.7551 26.8164 15.162C26.6908 15.7509 26.628 16.0454 26.753 16.2126C26.7934 16.2666 26.8407 16.3077 26.8998 16.3402C27.0827 16.4408 27.3817 16.3319 27.9797 16.1141C28.9536 15.7593 29.4253 15.7558 27.4937 17.0746C25.4038 18.5015 19.2293 25.8234 17.8152 31.2201C17.7938 31.302 17.809 31.3875 17.8553 31.4584V31.4584C17.9961 31.6741 18.3284 31.6325 18.4195 31.3915C19.7093 27.9792 23.4282 22.5538 27.2109 18.9557C27.7828 18.4117 28.0687 18.1397 28.3152 18.2026C28.3879 18.2211 28.462 18.2618 28.5166 18.3132C28.7019 18.4875 28.6236 18.8856 28.4671 19.6818L26.294 30.734C26.2563 30.9255 26.3775 31.1123 26.5677 31.1559V31.1559Z" fill="white" fill-opacity="0.8"/>
<path d="M26.6641 3.77695C26.6424 3.35641 26.6315 3.14614 26.5165 3.02334C26.4793 2.98372 26.4364 2.95162 26.388 2.92717C26.2377 2.85139 26.0349 2.8998 25.6294 2.99662C23.5806 3.48575 23.4101 4.19817 22.8059 16.9903C22.7941 17.2406 23.0267 17.4421 23.2696 17.3808V17.3808C23.4258 17.3415 23.5392 17.2044 23.5512 17.0438C24.3135 6.84002 26.0628 -0.102558 26.2953 10.4936C26.3003 10.7235 26.5177 10.9031 26.7406 10.8469V10.8469C26.9059 10.8052 27.0186 10.6526 27.0098 10.4824L26.6641 3.77695Z" fill="white" fill-opacity="0.8"/>
<path d="M16.2608 23.7467C16.3471 23.5437 16.3903 23.4422 16.3879 23.3427C16.387 23.3064 16.3837 23.2811 16.3751 23.2458C16.3518 23.1491 16.2668 23.0403 16.0969 22.8227C14.4929 20.7688 11.3305 13.8201 9.69954 10.0154C9.60776 9.80131 9.72977 9.55675 9.95565 9.49983V9.49983C10.1261 9.45688 10.3088 9.54656 10.3906 9.7021C16.1583 20.6646 15.7591 13.3687 14.7859 8.02938C14.7527 7.84712 14.8661 7.6711 15.0458 7.62583V7.62583C15.2232 7.58112 15.4079 7.68862 15.4657 7.86218C20.9968 24.4624 18.1658 25.8474 13.8924 30.707C13.7167 30.9068 13.6288 31.0067 13.5459 31.0471C13.3733 31.1313 13.1735 31.1019 13.0324 30.9718C12.9646 30.9092 12.9106 30.7915 12.8026 30.556V30.556C12.7565 30.4554 12.7335 30.4052 12.7229 30.357C12.7007 30.2561 12.711 30.1603 12.7541 30.0664C12.7746 30.0216 12.8098 29.9747 12.8802 29.8809C14.2777 28.018 15.7016 25.0621 16.2608 23.7467Z" fill="white" fill-opacity="0.8"/>
<path d="M18.9152 16.529C18.8168 16.7615 18.7676 16.8777 18.7119 16.8858C18.6944 16.8884 18.678 16.8866 18.6615 16.8802C18.609 16.86 18.5871 16.7386 18.5433 16.4958L18.0693 13.8664C18.0571 13.7983 18.0509 13.7642 18.0499 13.7297C18.0496 13.7183 18.0497 13.7068 18.0502 13.6954C18.0518 13.6609 18.0588 13.6256 18.0728 13.555C21.0809 -1.63371 23.4655 -0.592651 21.2752 21.4199C21.2691 21.4807 21.2449 21.5411 21.2059 21.5882V21.5882C21.0208 21.8123 20.6553 21.6768 20.6562 21.386C20.6768 14.1354 19.6304 14.84 18.9152 16.529Z" fill="white" fill-opacity="0.8"/>
<path d="M2.81196 30.0067C2.39475 30.1706 2.18614 30.2526 2.01554 30.183C1.96207 30.1612 1.91117 30.128 1.86964 30.0879C1.73716 29.9598 1.72787 29.7301 1.70931 29.2707C1.37521 21.0045 0.61382 15.9701 0.165239 14.1141C0.0987856 13.8391 0.0655592 13.7016 0.0916249 13.5936C0.100783 13.5557 0.111649 13.5264 0.12946 13.4917C0.180152 13.3928 0.288003 13.3153 0.503706 13.1603C10.0304 6.31549 11.1947 12.8426 8.4018 17.6333C8.06119 18.2176 7.89089 18.5097 7.93966 18.6941C7.95712 18.7602 7.9772 18.8012 8.01863 18.8555C8.13434 19.0072 8.46264 19.0511 9.11924 19.1389C17.2869 20.2304 11.4935 26.5942 2.81196 30.0067Z" fill="white" fill-opacity="0.8"/>
</svg>
