<svg width="122" height="69" viewBox="0 0 122 69" fill="none" xmlns="http://www.w3.org/2000/svg">
<path d="M3.1114 6.20974C7.67297 6.20974 17.6086 5.86019 22.2976 5.59273C29.1088 5.20424 39.3491 4.45141 48.22 4.00389C56.704 3.57588 66.2938 3.21211 71.0651 2.94466C73.7659 2.79327 75.8524 2.15288 79.3014 1.88543C82.4222 1.64343 86.643 1.09365 99.709 1.00097C104.374 0.967878 107.183 1.79274 110.632 2.0602C111.984 2.16503 113.03 2.50243 114.002 2.85197C116.589 3.78241 116.922 7.25838 118.34 9.37949C119.707 11.4235 120.289 13.6138 120.911 15.8223C121.08 16.4251 121.001 17.141 120.738 17.5885C119.677 19.3946 116.763 19.2701 113.407 19.8897C107.125 21.0495 104.199 20.5094 101.363 21.0363C98.6565 21.5393 96.5839 22.0982 94.4571 22.6252C92.2814 23.1643 90.2115 24.0366 88.0847 24.7436C85.8997 25.47 83.8391 26.6847 81.7123 26.9521C79.5148 27.2285 77.4667 27.924 75.3399 28.4509C73.1642 28.99 71.0943 30.2119 69.5835 32.2403C67.8784 34.5296 68.4285 38.8447 68.9569 41.7734C69.429 44.3905 70.0216 46.7995 70.4624 50.0646C71.1141 54.8927 71.0837 60.1882 70.2022 64.0173C70.0574 64.6462 70.0216 65.336 69.7588 65.8709C68.7295 67.9655 65.784 67.9947 60.5719 68C57.4516 68.0032 54.1119 65.5373 52.0594 63.4162C50.4032 61.7045 51.085 58.6523 50.8168 52.4875C50.6677 49.0612 49.4919 47.0007 49.2237 44.8796C48.9466 42.6879 47.8988 40.2958 47.1898 37.9946C47.0246 37.4583 46.8367 36.938 46.0455 36.6679C42.1055 35.3229 32.4032 36.9274 26.3972 37.367C23.8325 37.5547 21.7082 36.9274 19.5814 36.4005C17.2437 35.8213 14.8048 34.9891 12.678 34.7216C10.313 34.4242 7.55084 33.4002 5.2435 33.0454C2.86252 32.6792 2.22988 29.1739 1.60857 26.4358C0.647989 22.2025 0.987262 15.4462 1.51564 10.9842C1.86878 9.92764 2.39981 8.86311 3.19371 7.9813C3.63712 7.62381 4.16284 7.44904 4.7045 7.26897M56.4471 51.6168C56.4964 51.5798 56.5577 51.4548 56.9945 51.0076C57.3954 50.6664 58.1601 50.0931 58.572 49.7448C58.9839 49.3965 59.0199 49.2905 59.0569 49.1813M57.6555 30.7131C57.7822 31.475 58.6729 33.3819 59.7315 35.3021C60.246 36.2353 61.2336 36.9619 61.8767 37.7937C62.1577 38.1572 62.3258 38.5605 62.3268 38.9108C61.5618 39.3913 60.7287 39.5828 60.3458 39.7101C60.1529 39.7742 59.9628 39.8374 59.5751 39.9025M53.7976 30.3457C53.7976 30.2193 53.861 29.9647 54.052 29.7091C54.1379 29.5941 54.3696 29.7063 54.5309 29.8336C54.5385 29.8396 54.5461 29.8457 54.5535 29.852M54.5535 29.852C54.7038 29.9787 54.8174 30.158 54.7891 30.3112C54.7593 30.472 54.5693 30.5984 54.5031 30.5371C54.4409 30.4796 54.4929 30.2534 54.5535 29.852ZM54.5535 29.852C54.5575 29.8259 54.5615 29.799 54.5654 29.7714M60.6728 29.8756C60.6728 29.8607 60.673 29.8455 60.6735 29.8301M60.6735 29.8301C60.6809 29.5853 60.7493 29.2881 60.9588 29.0476C61.072 28.9177 61.3715 29.0447 61.5021 29.2352C61.6326 29.4257 61.6326 29.7416 61.5376 29.9675C61.4426 30.1934 61.2525 30.3198 61.0913 30.2901C60.9668 30.2672 60.8629 30.1489 60.6735 29.8301ZM60.6735 29.8301C60.6176 29.736 60.5543 29.6244 60.4809 29.4927M13.6964 30.7131C13.5064 30.2689 12.3604 28.9977 11.5868 28.0357C10.887 27.1655 10.3717 25.8044 10.0818 24.8146C9.98291 24.4769 10.0492 23.9588 10.1442 23.6037C10.4595 22.4252 12.537 22.3545 13.6926 22.1305C14.6411 21.9467 15.4202 22.7336 16.3483 23.4036C17.2354 24.0441 17.9809 25.0922 18.3024 26.0829C18.5615 26.8813 18.814 27.7724 18.8159 28.9221C18.8174 29.7921 17.5394 30.0085 16.7706 30.3292C16.583 30.4075 16.3877 30.4565 16.2898 30.647C16.0539 31.1059 16.1285 31.6684 15.9375 32.0187C15.8393 32.1989 15.6198 32.3059 15.3952 32.371C15.1706 32.4361 14.9173 32.4361 14.7867 32.2465C14.7195 31.0979 14.9748 30.2076 15.2311 29.3758L15.424 28.7986M109.868 17.8864C109.868 16.8105 110.121 14.6357 110.188 13.71C110.252 12.8261 109.549 12.1469 109.356 11.3485C109.134 10.4289 109.929 9.53173 110.633 8.89038C111.54 8.06354 113.507 7.93124 114.722 8.05759C115.853 8.17517 115.753 9.65042 115.787 10.735C115.814 11.6142 114.862 12.457 113.647 13.7656C113.383 14.0506 113.262 14.2451 113.101 14.3112C112.941 14.3772 112.751 14.314 112.685 14.3763C112.211 14.8211 113.066 15.903 113.036 17.0211C113.024 17.4736 112.365 17.5667 111.887 17.6624C111.603 17.7193 111.219 17.695 111.023 17.5686C110.827 17.4423 110.827 17.1896 110.923 16.9646C111.018 16.7397 111.208 16.5501 111.595 15.972M2.17936 16.163C2.24078 15.9735 3.262 15.2096 4.12774 14.6333C4.57846 14.3333 5.12016 14.1222 5.5991 13.9623C6.40574 13.6931 7.03975 15.0105 7.77495 15.7456C8.66073 16.6314 10.3645 16.0366 16.583 13.588C18.9525 12.655 20.0891 12.9084 20.9884 13.3526C21.5148 13.6125 22.1373 14.373 23.6346 14.8516C25.7297 15.5213 28.7176 14.6352 31.7189 13.8398C34.3853 13.1331 36.4036 12.5255 37.7464 12.5887C39.0378 12.6495 40.0528 14.306 42.8621 14.5682C46.437 14.902 49.4549 12.5944 50.5817 12.2068C51.4923 11.8935 52.2767 12.9697 53.2355 13.1956C55.8047 13.8009 58.3541 11.507 60.3984 10.9317C62.1043 10.4517 63.537 12.4566 64.4027 13.0032C65.2619 13.5456 66.2897 12.3992 67.4088 11.6353C68.3578 10.9875 69.8025 10.2971 71.4389 9.75051C72.5842 9.36798 75.7993 10.2282 78.9551 9.91036C80.3093 9.77398 82.848 9.46238 84.494 9.65287C85.4249 9.76059 86.6987 9.52747 88.1077 9.11299C89.1309 8.81198 90.1539 8.6966 91.2759 9.04598C92.5979 9.45765 94.0584 9.07949 95.0834 8.85741C96.3027 8.59325 97.5136 7.86955 99.0167 7.42157C100.034 7.11846 100.842 7.99208 101.77 8.05908C102.741 8.12919 103.656 6.97741 104.49 6.56006C104.886 6.36193 105.322 6.14462 105.833 6.0489C106.783 5.87087 107.941 6.39924 109.128 6.20876C110.264 6.02645 111.396 5.82491 112.52 5.63442C113.448 5.37884 114.978 5.25057 116.103 5.09167C116.391 5.05912 116.771 5.05912 117.162 5.05912M110.06 18.4602C108.791 18.701 107.811 18.8288 106.679 18.9763L106.482 19.002C104.89 19.2099 103.859 19.226 102.928 19.3849C101.884 19.5632 100.723 19.7352 99.5711 19.9592C97.933 20.2778 96.8837 20.1832 95.7636 20.4053C94.1712 20.721 93.0445 20.949 92.1788 21.1395C90.9368 21.4128 89.3973 21.5234 88.5633 21.7138C87.7145 21.9077 86.7099 22.224 85.7165 22.4796C84.8432 22.7043 83.9572 23.1162 83.1884 23.4369C82.3661 23.7799 81.3351 24.1385 80.3417 24.553C79.5006 24.9039 78.4557 25.0957 77.6216 25.3513C76.847 25.5887 76.0869 25.8615 75.3181 26.3076C74.5485 26.7541 73.7834 27.1365 73.0146 27.4888C72.1911 27.8661 71.4799 28.4767 70.7111 29.0194C69.8789 29.6069 69.2417 30.6438 68.7896 31.4757C68.3929 32.2057 68.0861 33.0063 67.9892 34.0908C67.886 35.245 67.9556 36.6438 68.0525 39.6351C68.1087 41.3694 68.3395 43.1529 68.3414 44.7142C68.3426 45.7194 67.5755 46.4075 66.872 46.9522C66.0451 47.5923 64.5694 47.0508 63.8006 46.7952C63.0318 46.5396 62.2659 46.1586 61.3388 45.7106C59.9246 45.0273 58.8759 46.0284 58.0419 46.4094C57.2139 46.7876 56.6991 47.6213 55.7403 48.0693C55.3885 48.2336 54.7872 48.1343 54.4618 48.0396C53.5997 47.7885 53.6892 46.4152 53.2736 45.6484C52.858 44.8817 52.3455 43.9915 51.8982 43.0007C51.5077 42.1356 51.0018 41.4376 50.7455 40.6708C50.4822 39.8831 49.9153 39.1402 49.4345 38.3735C48.986 37.6584 48.4449 36.8429 47.7078 36.235C47.044 35.6877 46.2067 35.3726 45.1499 35.117C44.8623 35.0474 44.5443 34.9897 42.6075 34.9571C40.6706 34.9246 37.1232 34.9246 35.1691 34.893C32.9598 34.8573 31.6236 34.7331 29.8969 34.7015C29.0519 34.6861 26.8342 34.5417 23.6362 34.5101C20.9373 34.3502 18.6894 34.2871 17.5146 34.1913C16.5299 34.1588 14.7562 34.1588 12.7368 33.9673M51.7926 22.2062L52.3877 22.2548C52.7454 22.284 53.3386 22.3324 53.7564 22.3894C54.1742 22.4464 54.3987 22.5105 54.8534 22.567M59.1439 27.0111C59.5142 26.9057 59.841 26.8537 60.2121 26.8162C60.7769 26.6941 61.3251 26.5971 61.6973 26.5593C61.8611 26.534 61.9739 26.496 62.2126 26.3863" stroke="#F6F1E8" stroke-width="2" stroke-linecap="round"/>
</svg>
