<svg width="44" height="25" viewBox="0 0 44 25" fill="none" xmlns="http://www.w3.org/2000/svg">
<path d="M4.25705 6.32499C4.25705 6.91303 4.13149 8.097 4.03542 11.8354C3.95599 14.9259 4.00212 19.1474 4.2561 19.9377C4.31984 20.136 4.38262 20.3313 4.54052 20.4645C5.66082 21.4095 7.67961 20.7951 9.69148 20.8937C14.9622 21.1522 18.5884 20.7319 18.7149 20.3382C18.7787 20.1399 18.8415 19.9446 18.968 19.7788C19.0945 19.6131 19.2828 19.4828 19.474 19.4809C20.3008 19.4723 20.8048 20.5958 21.8826 20.6974C23.2775 20.8289 25.1805 20.4024 26.4447 20.4991C29.7396 20.7511 30.8841 20.3353 33.2223 20.4991C34.6671 20.6003 37.3069 20.5326 38.6653 20.1093C40.0237 19.6861 40.0237 18.8395 39.9923 18.2406C39.9436 17.3124 39.8334 14.3109 39.8648 10.168C39.8854 7.44683 39.8981 5.3423 39.6441 4.552C39.5804 4.35368 39.5176 4.15833 39.3597 4.09025C38.5608 3.74583 37.7445 4.48195 35.882 4.71282C33.103 5.05729 31.0211 4.68125 29.5733 4.58258C26.2491 4.35604 23.9801 4.74439 23.8221 5.13806C23.7401 5.34257 23.6015 5.53173 23.4426 5.66493C23.2837 5.79813 23.0954 5.86324 22.9042 5.86423C22.713 5.86522 22.5247 5.8001 22.3648 5.66888C22.0317 5.3953 21.8873 4.94567 21.698 4.61712C21.6056 4.45661 21.3832 4.4188 21.192 4.41782C20.4069 4.41376 19.5454 4.74637 18.4048 4.91015C17.0957 5.09815 16.0543 5.00881 14.2936 5.10748C6.55316 5.54121 5.78284 4.94369 5.18071 5.04137C4.95526 5.13905 4.89248 5.3344 4.82875 5.53272C4.76502 5.73103 4.70223 5.92639 4.63755 6.32499" stroke="#F6F1E8" stroke-width="8" stroke-linecap="round"/>
</svg>
