<svg width="158" height="55" viewBox="0 0 158 55" fill="none" xmlns="http://www.w3.org/2000/svg">
<path d="M67.7672 28.1984C67.2526 27.9108 66.4524 27.3356 64.9905 26.5266C64.1542 26.0638 63.1277 25.4889 62.1485 24.5924C61.8004 24.2737 61.3466 23.6405 60.6591 22.8912C60.1293 22.3138 58.5468 20.4183 56.2244 17.9652C54.6427 16.2944 53.6595 15.0947 53.0847 14.1124C52.707 13.4669 52.3947 12.9552 52.2802 12.581C52.1497 12.1543 52.1641 11.7425 52.3637 11.4255C52.7183 10.8624 53.5484 10.7056 54.3061 10.6013M54.3061 10.6013C54.5629 10.5659 54.8113 10.5366 55.0302 10.4996C55.7794 10.3727 56.5781 10.2406 57.2673 10.1531C58.021 10.0574 58.9288 9.89409 60.1024 9.72086C63.3817 9.2368 64.8382 8.79577 65.7839 8.65198C67.1214 8.44859 69.1851 8.44929 70.3183 8.96641C70.8828 9.22399 71.1134 9.99295 71.4038 11.3876M54.3061 10.6013C51.1825 10.4572 48.1453 10.3169 45.2289 10.182M54.3061 10.6013C59.7997 10.8546 65.5608 11.1196 71.4038 11.3876M71.4038 11.3876C71.6517 12.5782 71.943 14.2247 72.5228 16.3983C73.0138 18.2393 73.9003 20.1012 75.3837 23.7219C76.3609 26.1071 78.0029 29.515 78.8788 31.3677C80.1284 34.0109 80.7304 34.9529 80.6461 35.2985C80.3343 36.5764 78.44 35.994 75.733 36.1378C73.772 36.242 70.1351 36.1673 68.1208 36.1387C65.2428 36.0978 63.5338 35.7654 62.0926 35.619C61.0528 35.5134 59.2351 35.017 57.9324 34.4081C56.9277 33.9384 55.7865 32.2521 54.4382 30.0018C52.4166 26.6277 50.7908 23.7583 50.2186 22.5768C49.7125 21.5317 49.1835 20.5811 48.6698 19.3442C47.9613 17.638 46.721 15.4498 45.8037 13.086C45.3758 11.9831 45.2157 11.0587 45.2289 10.182M71.4038 11.3876C77.9903 11.6897 84.6808 11.9958 91.2092 12.2935M45.2289 10.182C45.2486 8.86774 45.6579 7.66067 46.1385 6.12012C46.3982 5.28745 46.542 4.64153 46.7709 4.03607C46.9445 3.57686 47.3439 3.31107 47.8017 3.13783C47.8998 3.10071 48.0066 3.07446 48.1953 3.05304M45.2289 10.182C41.457 10.0074 37.887 9.84183 34.5926 9.68855M48.1953 3.05304C48.8374 2.98013 50.4281 2.96314 55.8527 2.76364C62.5291 2.5181 75.5351 2.21968 82.3196 2.07156C89.2735 1.91974 89.6204 2.03951 89.8785 2.15385C90.229 2.30909 90.292 2.63086 90.3741 3.78904M48.1953 3.05304C41.0306 2.99498 39.8834 3.08856 39.1603 3.45832C36.8398 4.645 34.9306 5.33109 34.8401 6.64156C34.7484 7.97028 34.6284 9.0464 34.5926 9.68855M48.1953 3.05304C49.6792 3.06506 51.4212 3.08359 53.4711 3.10752C62.7147 3.21542 78.2346 3.54784 90.3741 3.78904M90.3741 3.78904C90.4547 4.92669 90.5538 6.87135 90.9618 10.2579C91.0371 10.8828 91.12 11.5648 91.2092 12.2935M90.3741 3.78904C93.9245 3.85959 97.1858 3.92233 99.9164 3.96937C111.983 4.17726 113.005 4.06292 114.128 4.00402C118.008 3.80051 119.159 4.11836 119.935 4.26214C120.135 4.29922 120.364 4.29159 120.481 4.80611C120.598 5.32062 120.598 6.34965 120.569 7.10843C120.543 7.81149 120.492 8.25576 121.004 13.6433M91.2092 12.2935C92.0714 19.3361 93.5223 30.7446 94.3941 37.2717C95.3561 44.474 95.5832 45.3315 95.9558 46.3736C96.3284 47.4156 96.8394 48.6161 96.9892 49.3203C97.1389 50.0245 96.9117 50.196 96.4824 50.2844C96.053 50.3727 95.4283 50.3727 94.8794 50.4013C94.3304 50.4299 93.8761 50.4871 85.1522 50.7452C76.4283 51.0033 59.4485 51.4607 50.7013 51.439C41.9542 51.4174 41.9542 50.9028 41.9826 50.4949C42.0311 49.7975 42.183 47.4485 42.2123 43.6156C42.2258 41.8406 42.0712 40.4116 41.8707 38.9893C41.6702 37.567 41.3863 36.195 40.4166 32.7727C39.4469 29.3504 37.8 23.9194 36.9232 20.9501C35.9487 17.6498 35.8176 16.9414 35.5035 15.7928C34.5355 12.2525 34.613 11.2835 34.5828 10.0708C34.5803 9.96958 34.5841 9.84135 34.5926 9.68855M91.2092 12.2935C101.98 12.7846 112.31 13.2529 121.004 13.6433M34.5926 9.68855C32.3193 9.58278 30.1772 9.48288 28.1907 9.38997C3.11424 8.21715 2.8303 8.15999 2.57131 8.16085C2.31232 8.16172 1.98111 8.1927 2.00084 8.33582C2.08861 8.97247 2.47677 9.60524 2.69091 10.4459C3.00755 11.6888 3.30531 12.7181 3.37839 13.8829C3.4653 15.2679 3.77251 16.088 4.12525 16.9414C4.55633 17.9843 4.85091 19.5343 6.0879 23.2143C6.81754 25.385 8.12368 29.0438 8.86451 31.256C9.60535 33.4682 9.77571 34.2114 10.0072 35.7905C10.2386 37.3695 10.5731 39.7098 10.6645 41.3566C10.8065 43.9145 10.766 45.9026 10.3143 48.3164L10.3112 48.3331C10.0499 49.7281 9.73059 51.4328 28.6183 52.2576C47.5814 53.0856 84.7779 53.0285 103.639 52.9704C122.501 52.9124 123.012 52.8411 123.531 52.8267C124.561 52.7981 125.475 52.7592 125.474 52.391C125.473 51.9873 125.34 51.4024 124.898 49.2969C124.783 48.7478 124.669 48.3476 123.91 41.4917C123.151 34.6359 121.789 21.7158 121.136 15.0202C121.088 14.5285 121.044 14.0704 121.004 13.6433M121.004 13.6433C123.842 13.7708 126.507 13.89 128.955 13.999C154.594 15.14 155.061 15.092 155.349 15.0624L155.355 15.0618C155.643 15.0323 155.927 15.0323 155.988 15.0895C156.049 15.1467 155.879 15.261 155.359 15.552" stroke="#F6F1E8" stroke-width="4" stroke-linecap="round"/>
</svg>
